<svg width="114" height="49" viewBox="0 0 114 49" fill="none" xmlns="http://www.w3.org/2000/svg">
<g clip-path="url(#clip0_33_166)">
<path d="M31.2856 3.06808V5.24988C31.2863 5.53661 31.2304 5.82066 31.121 6.08571C31.0117 6.35075 30.851 6.59156 30.6483 6.79431C30.4456 6.99705 30.2049 7.15775 29.9399 7.26714C29.6749 7.37652 29.3909 7.43244 29.1043 7.4317H8.94825V14.1669H26.3093C26.8838 14.1797 27.4312 14.4137 27.8376 14.8201C28.2439 15.2265 28.4778 15.7741 28.4906 16.3487V18.5305C28.4792 19.1061 28.246 19.6551 27.8395 20.0627C27.433 20.4703 26.8847 20.7051 26.3093 20.7179H8.94825V27.548H29.0317C29.3118 27.5472 29.5893 27.6019 29.8482 27.7087C30.107 27.8156 30.3423 27.9726 30.5403 28.1707C30.7383 28.3687 30.8953 28.604 31.0021 28.863C31.1089 29.1219 31.1636 29.3994 31.1628 29.6796V31.9116C31.1636 32.1983 31.1077 32.4824 30.9983 32.7474C30.8889 33.0125 30.7283 33.2533 30.5256 33.456C30.3229 33.6588 30.0821 33.8195 29.8172 33.9288C29.5522 34.0382 29.2682 34.0941 28.9815 34.0934H2.40439C2.11388 34.0927 1.82642 34.0342 1.55879 33.9211C1.29116 33.8081 1.04875 33.6428 0.845682 33.435C0.642611 33.2273 0.482957 32.9811 0.376064 32.7109C0.269171 32.4407 0.217182 32.1519 0.223112 31.8614V3.02343C0.231923 2.45162 0.465948 1.9064 0.874386 1.50622C1.28282 1.10604 1.83266 0.883252 2.40439 0.886261H29.1043C29.3909 0.885524 29.6749 0.941444 29.9399 1.05083C30.2049 1.16022 30.4456 1.32091 30.6483 1.52366C30.851 1.72641 31.0117 1.96722 31.121 2.23226C31.2304 2.4973 31.2863 2.78135 31.2856 3.06808Z" fill="white"/>
<path d="M50.0191 11.1313L56.3733 3.06805C57.2715 1.95203 58.5044 0.88623 60.4012 0.88623H65.383C66.6159 0.88623 67.0901 1.92971 66.1919 3.06805L55.185 17.0183L66.8558 31.9171C67.754 33.0332 67.2798 34.099 66.0469 34.099H61.1152C59.2185 34.099 57.9856 33.0555 57.0818 31.9171L50.0191 22.9053L42.9508 31.9171C42.0527 33.0332 40.8198 34.099 38.923 34.099H33.9914C32.7585 34.099 32.2843 33.0555 33.1824 31.9171L44.8476 17.0183L33.8463 3.06805C32.9481 1.95203 33.4223 0.88623 34.6552 0.88623H39.6315C41.5282 0.88623 42.7612 1.92971 43.6649 3.06805L50.0191 11.1313Z" fill="white"/>
<path d="M90.6602 34.0934C90.0366 34.0521 89.4377 33.8339 88.9338 33.4643C88.4299 33.0946 88.0417 32.5889 87.815 32.0064L79.6589 9.23405V31.8613C79.6648 32.1519 79.6128 32.4407 79.5059 32.7109C79.399 32.981 79.2394 33.2272 79.0363 33.435C78.8332 33.6428 78.5908 33.8081 78.3232 33.9211C78.0556 34.0341 77.7681 34.0927 77.4776 34.0934H73.3047C73.0142 34.0927 72.7267 34.0341 72.4591 33.9211C72.1915 33.8081 71.949 33.6428 71.746 33.435C71.5429 33.2272 71.3832 32.981 71.2763 32.7109C71.1695 32.4407 71.1175 32.1519 71.1234 31.8613V3.11827C71.1167 2.83173 71.1666 2.54668 71.2701 2.27942C71.3736 2.01215 71.5287 1.7679 71.7266 1.56062C71.9245 1.35334 72.1613 1.18708 72.4235 1.07137C72.6856 0.955657 72.968 0.89275 73.2545 0.88623H82.6937C83.3239 0.927901 83.9269 1.15828 84.4244 1.5474C84.9218 1.93652 85.2907 2.46638 85.4831 3.06805L92.3115 22.8495L99.1399 3.06805C99.3329 2.46678 99.702 1.93734 100.199 1.54832C100.697 1.15931 101.299 0.928649 101.929 0.88623H111.368C111.655 0.89275 111.937 0.955657 112.2 1.07137C112.462 1.18708 112.698 1.35334 112.896 1.56062C113.094 1.7679 113.249 2.01215 113.353 2.27942C113.456 2.54668 113.506 2.83173 113.5 3.11827V31.8613C113.505 32.1519 113.453 32.4407 113.347 32.7109C113.24 32.981 113.08 33.2272 112.877 33.435C112.674 33.6428 112.431 33.8081 112.164 33.9211C111.896 34.0341 111.609 34.0927 111.318 34.0934H107.145C106.855 34.0927 106.567 34.0341 106.3 33.9211C106.032 33.8081 105.79 33.6428 105.587 33.435C105.384 33.2272 105.224 32.981 105.117 32.7109C105.01 32.4407 104.958 32.1519 104.964 31.8613V9.23405L96.8247 32.0064C96.5968 32.5881 96.2084 33.0931 95.7047 33.4626C95.201 33.8321 94.6027 34.0508 93.9795 34.0934H90.6602Z" fill="white"/>
<path d="M10.8508 37.4137C10.9494 37.4122 11.0472 37.4305 11.1386 37.4675C11.23 37.5046 11.313 37.5596 11.3827 37.6293C11.4524 37.6991 11.5074 37.7821 11.5445 37.8735C11.5815 37.9649 11.5998 38.0628 11.5983 38.1614V38.9091C11.6006 39.0082 11.5828 39.1067 11.5461 39.1988C11.5094 39.2908 11.4545 39.3745 11.3847 39.4448C11.3149 39.5152 11.2317 39.5707 11.1399 39.6081C11.0482 39.6455 10.9498 39.664 10.8508 39.6624H7.29711V48.0884C7.29417 48.2843 7.21391 48.471 7.07388 48.6079C6.93384 48.7449 6.74537 48.8209 6.54954 48.8194H5.04886C4.85303 48.8209 4.66456 48.7449 4.52452 48.6079C4.38449 48.471 4.30426 48.2843 4.30133 48.0884V39.6624H0.730913C0.631849 39.664 0.533481 39.6455 0.441727 39.6081C0.349973 39.5707 0.266704 39.5152 0.196908 39.4448C0.127111 39.3745 0.0722406 39.2908 0.0355449 39.1988C-0.00115067 39.1067 -0.0189172 39.0082 -0.0166537 38.9091V38.1614C-0.0181591 38.0628 0.000178385 37.9649 0.0372134 37.8735C0.0742484 37.7821 0.129232 37.6991 0.198951 37.6293C0.26867 37.5596 0.351678 37.5046 0.443055 37.4675C0.534432 37.4305 0.632328 37.4122 0.730913 37.4137H10.8508Z" fill="white"/>
<path d="M28.1504 37.4135C28.3699 37.4117 28.5835 37.4848 28.7559 37.6207C28.9283 37.7567 29.0493 37.9473 29.0987 38.1613L31.0346 44.4668L33.1378 38.1613C33.1992 37.9549 33.3227 37.7725 33.4913 37.6387C33.66 37.505 33.8657 37.4263 34.0806 37.4135H35.8267C35.9104 37.4072 35.9943 37.4218 36.071 37.4559C36.1477 37.4899 36.2147 37.5425 36.2661 37.6088C36.3175 37.6752 36.3516 37.7532 36.3655 37.836C36.3794 37.9188 36.3725 38.0037 36.3456 38.0832L32.7975 48.0046C32.7236 48.2477 32.5714 48.4595 32.3645 48.6069C32.1576 48.7543 31.9077 48.829 31.6538 48.8193H30.499C30.2439 48.835 29.9912 48.7627 29.783 48.6144C29.5748 48.4661 29.4239 48.2508 29.3554 48.0046L27.4196 41.8665L25.4781 48.0046C25.4106 48.246 25.2639 48.4576 25.0615 48.6054C24.8591 48.7532 24.6128 48.8285 24.3624 48.8193H23.2076C22.9572 48.8285 22.7109 48.7532 22.5085 48.6054C22.3061 48.4576 22.1593 48.246 22.0918 48.0046L18.5382 38.0832C18.5124 38.0033 18.5067 37.9182 18.5214 37.8356C18.5361 37.7529 18.5709 37.6752 18.6227 37.6091C18.6744 37.543 18.7416 37.4906 18.8183 37.4565C18.895 37.4224 18.9789 37.4077 19.0626 37.4135H20.8031C21.0185 37.4268 21.2247 37.5055 21.3942 37.6391C21.5637 37.7727 21.6883 37.9549 21.7515 38.1613L23.8492 44.4668L25.7905 38.1613C25.8389 37.9478 25.9587 37.7572 26.1302 37.6212C26.3017 37.4852 26.5145 37.412 26.7334 37.4135H28.1504Z" fill="white"/>
<path d="M54.8894 38.1613V38.9091C54.8894 39.1088 54.81 39.3005 54.6688 39.4417C54.5275 39.583 54.336 39.6624 54.1362 39.6624H47.213V41.9781H53.1711C53.3689 41.9796 53.5582 42.0588 53.6981 42.1987C53.838 42.3387 53.9172 42.528 53.9187 42.7258V43.4736C53.9172 43.672 53.8382 43.8619 53.6984 44.0027C53.5587 44.1435 53.3694 44.224 53.1711 44.2269H47.213V46.5705H54.1251C54.2215 46.5705 54.317 46.5896 54.406 46.6267C54.4951 46.6638 54.5759 46.7181 54.6438 46.7866C54.7118 46.8551 54.7655 46.9363 54.8019 47.0257C54.8383 47.115 54.8566 47.2107 54.8559 47.3071V48.0716C54.8566 48.17 54.8378 48.2675 54.8005 48.3586C54.7632 48.4496 54.7082 48.5324 54.6386 48.602C54.569 48.6715 54.4863 48.7266 54.3953 48.7639C54.3042 48.8012 54.2067 48.8201 54.1083 48.8193H44.9648C44.8652 48.8193 44.7666 48.7995 44.6748 48.7608C44.583 48.7222 44.4998 48.6656 44.4302 48.5944C44.3605 48.5232 44.3058 48.4388 44.2693 48.3461C44.2327 48.2535 44.215 48.1544 44.2172 48.0548V38.1446C44.2202 37.9487 44.3004 37.762 44.4404 37.625C44.5805 37.4881 44.7689 37.4121 44.9648 37.4136H54.1362C54.2349 37.4129 54.3327 37.4317 54.424 37.4689C54.5154 37.5062 54.5984 37.5611 54.6685 37.6306C54.7385 37.7001 54.794 37.7828 54.8319 37.8739C54.8698 37.965 54.8894 38.0627 54.8894 38.1613Z" fill="white"/>
<path d="M63.9493 40.5105C64.6132 37.9827 66.9116 37.4136 69.2268 37.4136H73.5113C73.6043 37.4165 73.6959 37.4377 73.7807 37.476C73.8656 37.5143 73.9421 37.5689 74.0058 37.6368C74.0695 37.7047 74.1193 37.7845 74.1522 37.8716C74.185 37.9587 74.2004 38.0515 74.1974 38.1446V48.0883C74.1931 48.2847 74.1116 48.4714 73.9707 48.6082C73.8297 48.745 73.6407 48.8208 73.4443 48.8193H71.9492C71.8501 48.8216 71.7517 48.8038 71.6596 48.7671C71.5676 48.7304 71.4839 48.6755 71.4136 48.6057C71.3433 48.5359 71.2878 48.4526 71.2504 48.3608C71.213 48.269 71.1945 48.1707 71.1961 48.0716V46.0683H65.5448L64.9869 48.0716C64.93 48.2804 64.8078 48.4657 64.6382 48.6002C64.4686 48.7347 64.2604 48.8115 64.0441 48.8193H62.4821C62.3917 48.8238 62.3016 48.8062 62.2195 48.7681C62.1374 48.73 62.0658 48.6725 62.0109 48.6006C61.956 48.5286 61.9194 48.4444 61.9043 48.3551C61.8892 48.2659 61.896 48.1743 61.9242 48.0883L63.9493 40.5105ZM66.1306 43.8195H71.1961V39.6624H68.9311C68.4518 39.6485 67.9821 39.7993 67.6004 40.0897C67.2187 40.3801 66.9481 40.7925 66.8335 41.2583L66.1306 43.8195Z" fill="white"/>
<path d="M83.7593 48.8192C83.5591 48.8162 83.3681 48.7342 83.228 48.591C83.088 48.4478 83.0102 48.255 83.0117 48.0547V38.1612C83.0102 37.9609 83.088 37.7681 83.228 37.6249C83.3681 37.4817 83.5591 37.3997 83.7593 37.3967H85.26C85.4602 37.3997 85.6512 37.4817 85.7912 37.6249C85.9313 37.7681 86.009 37.9609 86.0075 38.1612V41.978H87.7202C88.6463 41.978 89.3157 41.5037 89.9517 40.3598L91.1902 38.1612C91.2921 37.9465 91.449 37.7627 91.645 37.6284C91.841 37.4941 92.069 37.4142 92.306 37.3967H94.1469C94.5542 37.3967 94.6379 37.7204 94.3924 38.1612L92.663 41.2916C92.4745 41.7199 92.1921 42.1002 91.8367 42.4045C91.4813 42.7087 91.0621 42.9292 90.61 43.0494C91.391 43.2112 92.2111 44.21 92.663 44.9075L94.6546 48.0715C94.9112 48.4955 94.7996 48.8192 94.3756 48.8192H92.5514C92.3045 48.7951 92.0662 48.7153 91.8546 48.5858C91.643 48.4563 91.4635 48.2804 91.3297 48.0715L89.9294 45.8394C89.3269 44.8741 88.7244 44.21 87.6979 44.21H85.9852V48.0715C85.9823 48.2673 85.9021 48.4541 85.762 48.591C85.622 48.7279 85.4335 48.8039 85.2377 48.8024L83.7593 48.8192Z" fill="white"/>
<path d="M106.989 37.3467H109.014C111.067 37.3467 113.265 38.5352 113.265 40.2818C113.273 40.3937 113.257 40.5059 113.22 40.6116C113.183 40.7172 113.124 40.8141 113.048 40.8962C112.971 40.9783 112.879 41.0439 112.776 41.0889C112.674 41.1339 112.563 41.1574 112.451 41.1579H111.502C111.268 41.1616 111.038 41.0914 110.846 40.9572C110.654 40.8229 110.509 40.6316 110.431 40.4101C110.169 39.8521 109.55 39.5955 108.758 39.5955H106.364C105.382 39.5955 104.959 39.9358 104.959 40.5106C104.959 42.3967 113.583 41.3086 113.583 45.5606C113.583 47.5136 112.467 48.9086 108.529 48.9086H106.119C104.066 48.9086 101.868 47.7201 101.868 45.9735C101.86 45.8614 101.876 45.7489 101.913 45.6429C101.95 45.5369 102.009 45.4397 102.085 45.3572C102.161 45.2746 102.254 45.2085 102.356 45.1629C102.459 45.1173 102.57 45.0931 102.682 45.0919H103.625C103.861 45.0873 104.093 45.1578 104.286 45.2932C104.48 45.4285 104.625 45.6218 104.702 45.8452C104.958 46.4032 105.583 46.6599 106.375 46.6599H109.165C110.141 46.6599 110.565 46.3139 110.565 45.7447C110.565 43.8531 101.946 44.9133 101.946 40.6947C101.94 38.7138 103.084 37.3467 106.989 37.3467Z" fill="white"/>
</g>
<defs>
<clipPath id="clip0_33_166">
<rect width="113.561" height="48" fill="white" transform="translate(0 0.88623)"/>
</clipPath>
</defs>
</svg>
